# xmcd CD database file generated by Grip 3.2.0
# 
# Track frame offsets:
#       150
#       19887
#       39232
# 
# Disc length: 777 seconds
# 
# Revision: 1
# Processed by: cddbd v1.5.2PL0 Copyright (c) Steve Scherf et al.
# Submitted via: Grip 3.2.0
# 
DISCID=19030703
DTITLE=goodbye - Spice girls
DYEAR=2003
DGENRE=Pop
TTITLE0=goodbye radio edit
TTITLE1=christmas wrapping
TTITLE2=goodbye orchestral version
EXTD=YEAR: 2003
EXTT0=
EXTT1=
EXTT2=
PLAYORDER=
